<svg width="48" height="48" viewBox="0 0 48 48" fill="none" xmlns="http://www.w3.org/2000/svg">
<rect width="48" height="48" rx="6" fill="#E1F2FF"/>
<path d="M22.3246 16.3173C22.751 14.5609 25.249 14.5609 25.6754 16.3173C25.9508 17.4519 27.2507 17.9904 28.2478 17.3828C29.7913 16.4424 31.5576 18.2087 30.6172 19.7522C30.0096 20.7493 30.5481 22.0492 31.6827 22.3246C33.4391 22.751 33.4391 25.249 31.6827 25.6754C30.5481 25.9508 30.0096 27.2507 30.6172 28.2478C31.5576 29.7913 29.7913 31.5576 28.2478 30.6172C27.2507 30.0096 25.9508 30.5481 25.6754 31.6827C25.249 33.4391 22.751 33.4391 22.3246 31.6827C22.0492 30.5481 20.7493 30.0096 19.7522 30.6172C18.2087 31.5576 16.4424 29.7913 17.3829 28.2478C17.9904 27.2507 17.4519 25.9508 16.3173 25.6754C14.5609 25.249 14.5609 22.751 16.3173 22.3246C17.4519 22.0492 17.9904 20.7493 17.3828 19.7522C16.4424 18.2087 18.2087 16.4424 19.7522 17.3828C20.7493 17.9904 22.0492 17.4519 22.3246 16.3173Z" stroke="#0896FC" stroke-width="2" stroke-linecap="round" stroke-linejoin="round"/>
<path d="M27 24C27 25.6569 25.6569 27 24 27C22.3431 27 21 25.6569 21 24C21 22.3431 22.3431 21 24 21C25.6569 21 27 22.3431 27 24Z" stroke="#0896FC" stroke-width="2" stroke-linecap="round" stroke-linejoin="round"/>
</svg>
