<svg width="48" height="48" viewBox="0 0 48 48" fill="none" xmlns="http://www.w3.org/2000/svg">
<rect width="48" height="48" rx="6" fill="#E1F2FF"/>
<path d="M29 26V32M26 29H32M18 22H20C21.1046 22 22 21.1046 22 20V18C22 16.8954 21.1046 16 20 16H18C16.8954 16 16 16.8954 16 18V20C16 21.1046 16.8954 22 18 22ZM28 22H30C31.1046 22 32 21.1046 32 20V18C32 16.8954 31.1046 16 30 16H28C26.8954 16 26 16.8954 26 18V20C26 21.1046 26.8954 22 28 22ZM18 32H20C21.1046 32 22 31.1046 22 30V28C22 26.8954 21.1046 26 20 26H18C16.8954 26 16 26.8954 16 28V30C16 31.1046 16.8954 32 18 32Z" stroke="#0896FC" stroke-width="2" stroke-linecap="round" stroke-linejoin="round"/>
</svg>
