<svg width="48" height="48" viewBox="0 0 48 48" fill="none" xmlns="http://www.w3.org/2000/svg">
<rect width="48" height="48" rx="6" fill="#E1F2FF"/>
<path fill-rule="evenodd" clip-rule="evenodd" d="M29.5936 15.5861L30.2759 17.5238H30.2844V17.4899C30.3096 17.5578 30.3602 17.6088 30.4276 17.6343L32.3483 18.3227C32.5084 18.3822 32.5505 18.5862 32.4325 18.7052L29.5346 21.6288C29.4672 21.6968 29.3746 21.7223 29.2903 21.6883L28.1025 21.2634C28.0183 21.2379 27.9172 21.2634 27.8582 21.3229L25.1372 24.0595C25.0698 24.1275 25.053 24.2295 25.0867 24.3145C25.1878 24.5695 25.2383 24.8499 25.2383 25.1389C25.2383 25.2834 25.2215 25.4364 25.1962 25.5809C24.9603 26.8472 23.7135 27.6886 22.4668 27.4591C21.22 27.2382 20.4281 26.1333 20.5797 24.8584C20.7061 23.8556 21.4811 23.0142 22.4668 22.8272C22.61 22.8017 22.7532 22.7847 22.9048 22.7847C23.1912 22.7847 23.4692 22.8442 23.722 22.9377C23.8146 22.9717 23.9073 22.9547 23.9747 22.8867L26.6704 20.1755C26.7294 20.116 26.7546 20.0225 26.721 19.9376L26.266 18.6627C26.2324 18.5862 26.2576 18.4842 26.3166 18.4247L29.2145 15.5011C29.3324 15.3821 29.5346 15.4246 29.5936 15.5861ZM24.9772 17.9912C25.0698 18.0252 25.1288 18.1272 25.0951 18.2292L25.1035 18.2207L24.6992 19.4785C24.6655 19.5805 24.5644 19.6315 24.4633 19.606C23.9579 19.4615 23.4356 19.385 22.888 19.385C19.7374 19.385 17.1848 21.9517 17.1848 25.1303C17.1848 28.3089 19.7374 30.8756 22.888 30.8756C26.0386 30.8756 28.5911 28.3004 28.5911 25.1303C28.5911 24.5949 28.5153 24.0765 28.3805 23.5835C28.3553 23.4815 28.4058 23.3795 28.5069 23.3455L29.7537 22.9461C29.8548 22.9206 29.9643 22.9716 29.9896 23.0736C30.1749 23.728 30.276 24.4164 30.276 25.1303C30.276 29.2353 26.9653 32.5669 22.888 32.5669C18.8107 32.5669 15.5 29.2353 15.5 25.1303C15.5 21.0253 18.8107 17.6937 22.888 17.6937C23.6125 17.6937 24.3117 17.7957 24.9772 17.9912Z" fill="#0896FC"/>
</svg>
