<svg width="48" height="48" viewBox="0 0 48 48" fill="none" xmlns="http://www.w3.org/2000/svg">
<rect width="48" height="48" rx="6" fill="#E1F2FF"/>
<path d="M23 16C23 14.8954 23.8954 14 25 14C26.1046 14 27 14.8954 27 16V17C27 17.5523 27.4477 18 28 18H31C31.5523 18 32 18.4477 32 19V22C32 22.5523 31.5523 23 31 23H30C28.8954 23 28 23.8954 28 25C28 26.1046 28.8954 27 30 27H31C31.5523 27 32 27.4477 32 28V31C32 31.5523 31.5523 32 31 32H28C27.4477 32 27 31.5523 27 31V30C27 28.8954 26.1046 28 25 28C23.8954 28 23 28.8954 23 30V31C23 31.5523 22.5523 32 22 32H19C18.4477 32 18 31.5523 18 31V28C18 27.4477 17.5523 27 17 27H16C14.8954 27 14 26.1046 14 25C14 23.8954 14.8954 23 16 23H17C17.5523 23 18 22.5523 18 22V19C18 18.4477 18.4477 18 19 18H22C22.5523 18 23 17.5523 23 17V16Z" stroke="#0896FC" stroke-width="2" stroke-linecap="round" stroke-linejoin="round"/>
</svg>
