<svg width="48" height="48" viewBox="0 0 48 48" fill="none" xmlns="http://www.w3.org/2000/svg">
<rect width="48" height="48" rx="6" fill="#E1F2FF"/>
<path d="M21 24L23 26L27 22M32.6179 17.9843C32.4132 17.9947 32.2072 18 32 18C28.9265 18 26.123 16.8445 23.9999 14.9443C21.8769 16.8444 19.0734 17.9998 16 17.9998C15.7928 17.9998 15.5868 17.9946 15.3821 17.9842C15.1327 18.9478 15 19.9584 15 21C15 26.5915 18.8243 31.2898 24 32.6219C29.1757 31.2898 33 26.5915 33 21C33 19.9585 32.8673 18.9479 32.6179 17.9843Z" stroke="#0896FC" stroke-width="2" stroke-linecap="round" stroke-linejoin="round"/>
</svg>
